<svg width="45" height="45" viewBox="0 0 45 45" fill="none" xmlns="http://www.w3.org/2000/svg">
<path d="M38.3915 24.3465C38.7543 22.9895 37.9509 21.5947 36.5972 21.2311L24.6851 18.0314V26.6304C24.6851 27.2242 24.4822 27.7704 24.1421 28.2033C28.4332 32.7577 32.0477 35.6799 34.8918 37.4394L38.3915 24.3465Z" fill="#6A89FF"/>
<path d="M16.3257 37.1173L31.2774 41.1334C32.6311 41.497 34.0225 40.6917 34.3852 39.3347L34.6119 38.4865C29.6313 36.7484 25.126 33.3298 21.204 29.1742H15.8218L14.5313 34.0019C14.1686 35.3589 14.972 36.7537 16.3257 37.1173Z" fill="#6A89FF"/>
<path fill-rule="evenodd" clip-rule="evenodd" d="M40.1433 39.6642C40.3843 39.683 40.6263 39.6976 40.8691 39.7079C40.6519 39.7147 40.4098 39.7009 40.1433 39.6642Z" fill="#6A89FF"/>
<path d="M24.6851 11.1135C24.6851 9.70866 23.549 8.56978 22.1476 8.56978H8.93008C12.1484 13.4104 15.1736 17.5477 17.9875 21.0717L18.5376 19.0137C18.9004 17.6567 20.2918 16.8514 21.6455 17.215L24.6851 18.0314V11.1135Z" fill="#6A89FF"/>
<path d="M4.13086 11.1135V26.6304C4.13086 28.0353 5.26697 29.1742 6.66842 29.1742H15.8218L17.1157 24.3333C13.1473 19.1189 9.98957 13.3973 7.80263 8.56978H6.66843C5.26697 8.56978 4.13086 9.70866 4.13086 11.1135Z" fill="#6A89FF"/>
<path d="M8.93008 8.56978C7.91552 7.0438 6.88176 5.44791 5.82938 3.7793C6.35697 5.21751 7.01719 6.83598 7.80263 8.56978H8.93008Z" fill="#6A89FF"/>
<path d="M34.6119 38.4865C36.3963 39.1093 38.2418 39.5163 40.1433 39.6642C38.9045 39.4938 37.1386 38.8294 34.8918 37.4394L34.6119 38.4865Z" fill="#6A89FF"/>
</svg>
